# xmcd
#
# Track frame offsets: 
#        150
#        27777
#        40731
#        63962
#        88653
#        105130
#        115823
#        135429
#        152675
#        165796
#        182147
#
# Disc length: 2813 seconds
#
# Revision: 1
# Processed by: cddbd v1.5.2PL0 Copyright (c) Steve Scherf et al.
# Submitted via: ExactAudioCopy v1.3
#
DISCID=740afb0b
DTITLE=Jóhann Jóhannsson - Englaborn and Variations CD2
DYEAR=2018
DGENRE=Jazz
TTITLE0=Eg heyroi allt an pess ad hlusta ( A Winged Victory for the Su
TTITLE0=llen Rework )
TTITLE1=Odi et Amo ( Jóhannsson and Donadello Rework )
TTITLE2=Englabörn ( Vikingur Olafsson piano Version )
TTITLE3=Joi and Karen ( Ryuichi Sakamoto Rework )
TTITLE4=Holy Thursday ( Theater of Voices Version )
TTITLE5=Englaboern ( Victor Orri Árnason Rework )
TTITLE6=Odi et Amo bis ( Alex Somers Rework )
TTITLE7=Salfraedingur deyr ( Hildur Guðnadóttir Rework )
TTITLE8=Odi Et Amo - Bis ( Jóhannsson and Donadello Rework )
TTITLE9=eins og venjulegt folk ( Paul Corley Rework )
TTITLE10=Odi et Amo ( Theater of Voices Version )
EXTD=YEAR: 2018
EXTT0=
EXTT1=
EXTT2=
EXTT3=
EXTT4=
EXTT5=
EXTT6=
EXTT7=
EXTT8=
EXTT9=
EXTT10=
PLAYORDER=
